<svg width="18" height="17" viewBox="0 0 18 17" fill="none" xmlns="http://www.w3.org/2000/svg">
<path d="M17.1816 0.978548L0.870471 2.46037C0.742622 2.47197 0.620854 2.52029 0.519826 2.59949C0.418799 2.6787 0.342821 2.78542 0.301039 2.9068C0.262191 3.02442 0.256921 3.15055 0.285824 3.271C0.314727 3.39145 0.376655 3.50145 0.464647 3.58864L5.91493 8.64918L7.9802 15.7814C8.01005 15.8812 8.06291 15.9726 8.13452 16.0483C8.20613 16.124 8.2945 16.1818 8.39252 16.2171C8.49054 16.2524 8.59548 16.2642 8.69889 16.2516C8.80231 16.2389 8.90132 16.2022 8.98796 16.1444C9.07626 16.089 9.15032 16.0136 9.20419 15.9244L17.8054 1.98637C17.8688 1.88145 17.9019 1.76109 17.9012 1.63854C17.9005 1.51599 17.8661 1.396 17.8016 1.2918C17.7371 1.18759 17.645 1.10321 17.5357 1.04794C17.4263 0.99267 17.3038 0.968658 17.1816 0.978548ZM8.85275 13.9649L7.26187 8.59857L12.4935 5.36041L11.7926 4.22803L6.56097 7.46619L2.46753 3.64888L15.9705 2.42517L8.85275 13.9649Z" fill="white"/>
</svg>
