<svg width="16" height="17" viewBox="0 0 16 17" fill="none" xmlns="http://www.w3.org/2000/svg">
<path fill-rule="evenodd" clip-rule="evenodd" d="M12.6777 0.682904C12.9692 0.562151 13.2816 0.5 13.5972 0.5C13.9127 0.5 14.2252 0.562151 14.5167 0.682904C14.8082 0.803657 15.0731 0.980648 15.2962 1.20377C15.5194 1.42689 15.6963 1.69178 15.8171 1.9833C15.9379 2.27483 16 2.58728 16 2.90282C16 3.21836 15.9379 3.53082 15.8171 3.82234C15.6963 4.11387 15.5194 4.37875 15.2962 4.60188L10.4734 9.42466C10.1065 9.79158 9.64015 10.0409 9.13209 10.1425V10.1425L6.90218 10.5888C6.6261 10.6441 6.34067 10.5577 6.14155 10.3587C5.94242 10.1596 5.85595 9.87422 5.91111 9.59812L6.3563 7.36965L6.35646 7.36882C6.45747 6.85946 6.70809 6.3918 7.07627 6.02563L7.07731 6.02459L11.8981 1.20377C12.1212 0.980649 12.3861 0.803658 12.6777 0.682904ZM13.5972 2.18423C13.5028 2.18423 13.4094 2.20281 13.3222 2.23893C13.235 2.27504 13.1558 2.32797 13.0891 2.3947L12.3262 3.15756L13.3424 4.17381L14.1053 3.41095C14.172 3.34422 14.225 3.265 14.2611 3.17782C14.2972 3.09064 14.3158 2.99719 14.3158 2.90282C14.3158 2.80845 14.2972 2.71501 14.2611 2.62783C14.225 2.54064 14.172 2.46143 14.1053 2.3947C14.0386 2.32797 13.9594 2.27504 13.8722 2.23893C13.785 2.20281 13.6915 2.18423 13.5972 2.18423ZM12.1515 5.36474L11.1353 4.34849L8.26431 7.21944C8.13339 7.3495 8.0443 7.51569 8.00846 7.69672L7.81014 8.68947L8.80155 8.49104C8.98397 8.45456 9.15095 8.3653 9.28252 8.23373L12.1515 5.36474Z" fill="white"/>
<path fill-rule="evenodd" clip-rule="evenodd" d="M2.52634 3.86831C2.303 3.86831 2.0888 3.95703 1.93088 4.11496C1.77295 4.27288 1.68423 4.48708 1.68423 4.71042V13.9737C1.68423 14.197 1.77295 14.4112 1.93088 14.5691C2.0888 14.7271 2.303 14.8158 2.52634 14.8158H11.7896C12.0129 14.8158 12.2271 14.7271 12.385 14.5691C12.543 14.4112 12.6317 14.197 12.6317 13.9737V11.4473C12.6317 10.9822 13.0087 10.6052 13.4738 10.6052C13.9389 10.6052 14.3159 10.9822 14.3159 11.4473V13.9737C14.3159 14.6437 14.0498 15.2863 13.576 15.7601C13.1022 16.2338 12.4596 16.5 11.7896 16.5H2.52634C1.85631 16.5 1.21373 16.2338 0.739947 15.7601C0.266167 15.2863 0 14.6437 0 13.9737V4.71042C0 4.04039 0.266167 3.39781 0.739947 2.92403C1.21373 2.45025 1.85631 2.18408 2.52634 2.18408H5.05268C5.51776 2.18408 5.89479 2.56111 5.89479 3.02619C5.89479 3.49128 5.51776 3.86831 5.05268 3.86831H2.52634Z" fill="white"/>
</svg>
