<svg width="18" height="15" viewBox="0 0 18 15" fill="none" xmlns="http://www.w3.org/2000/svg">
<mask id="path-1-inside-1_49_200" fill="white">
<path fill-rule="evenodd" clip-rule="evenodd" d="M6.31976 2.27419H14.5161C14.9781 2.27419 15.4212 2.45772 15.7479 2.78439C16.0745 3.11107 16.2581 3.55414 16.2581 4.01612V10.9839C16.2581 11.4458 16.0745 11.8889 15.7479 12.2156C15.4212 12.5423 14.9781 12.7258 14.5161 12.7258H6.31976C6.05857 12.7257 5.80075 12.6669 5.56536 12.5538C5.32997 12.4406 5.12304 12.2759 4.95989 12.072L2.0857 8.48012C1.86293 8.20201 1.74154 7.85632 1.74154 7.49999C1.74154 7.14366 1.86293 6.79797 2.0857 6.51986L4.95989 2.928C5.12279 2.72435 5.32935 2.55987 5.56431 2.44672C5.79927 2.33356 6.05664 2.2746 6.31743 2.27419M3.59653 1.83987C3.92321 1.4315 4.33762 1.10191 4.80904 0.875547C5.28047 0.649183 5.7968 0.531853 6.31976 0.532258H14.5161C15.4401 0.532258 16.3262 0.899307 16.9796 1.55266C17.633 2.20601 18 3.09215 18 4.01612V10.9839C18 11.9078 17.633 12.794 16.9796 13.4473C16.3262 14.1007 15.4401 14.4677 14.5161 14.4677H6.31976C5.7972 14.4678 5.28131 14.3503 4.81032 14.1239C4.33933 13.8976 3.92528 13.5682 3.59886 13.1601L0.725828 9.56825C0.255989 8.98128 0 8.25184 0 7.49999C0 6.74814 0.255989 6.0187 0.725828 5.43174L3.59653 1.83987ZM8.45421 4.56193C8.2891 4.40808 8.07072 4.32433 7.84508 4.32831C7.61944 4.33229 7.40416 4.4237 7.24458 4.58327C7.08501 4.74285 6.9936 4.95813 6.98962 5.18377C6.98564 5.40941 7.06939 5.62779 7.22324 5.7929L8.93033 7.49999L7.22324 9.20709C7.13767 9.28682 7.06903 9.38298 7.02143 9.48982C6.97383 9.59665 6.94823 9.71199 6.94617 9.82893C6.9441 9.94588 6.96561 10.062 7.00942 10.1705C7.05322 10.2789 7.11842 10.3775 7.20113 10.4602C7.28384 10.5429 7.38235 10.6081 7.4908 10.6519C7.59925 10.6957 7.71542 10.7172 7.83236 10.7151C7.94931 10.7131 8.06464 10.6875 8.17148 10.6399C8.27831 10.5923 8.37447 10.5236 8.45421 10.4381L10.1613 8.73096L11.8684 10.4381C11.9481 10.5236 12.0443 10.5923 12.1511 10.6399C12.258 10.6875 12.3733 10.7131 12.4902 10.7151C12.6072 10.7172 12.7233 10.6957 12.8318 10.6519C12.9402 10.6081 13.0388 10.5429 13.1215 10.4602C13.2042 10.3775 13.2694 10.2789 13.3132 10.1705C13.357 10.062 13.3785 9.94588 13.3764 9.82893C13.3744 9.71199 13.3488 9.59665 13.3012 9.48982C13.2536 9.38298 13.1849 9.28682 13.0994 9.20709L11.3923 7.49999L13.0994 5.7929C13.2532 5.62779 13.337 5.40941 13.333 5.18377C13.329 4.95813 13.2376 4.74285 13.078 4.58327C12.9184 4.4237 12.7032 4.33229 12.4775 4.32831C12.2519 4.32433 12.0335 4.40808 11.8684 4.56193L10.1613 6.26903L8.45421 4.56193Z"/>
</mask>
<path d="M16.2581 10.9839H17.2581H16.2581ZM14.5161 12.7258L14.5161 13.7258L14.5161 12.7258ZM6.31976 12.7258L6.31953 13.7258H6.31976V12.7258ZM4.95989 12.072L5.74078 11.4473L5.74068 11.4472L4.95989 12.072ZM2.0857 8.48012L2.86649 7.85533L2.86617 7.85493L2.0857 8.48012ZM1.74154 7.49999L2.74154 7.49999L1.74154 7.49999ZM2.0857 6.51986L2.86617 7.14505L2.86649 7.14465L2.0857 6.51986ZM4.95989 2.928L5.74068 3.55278L5.74078 3.55266L4.95989 2.928ZM3.59653 1.83987L2.81564 1.2152L2.81537 1.21554L3.59653 1.83987ZM6.31976 0.532258L6.31898 1.53226H6.31976V0.532258ZM18 10.9839H19H18ZM6.31976 14.4677L6.31976 13.4677L6.31965 13.4677L6.31976 14.4677ZM3.59886 13.1601L2.81794 13.7847L2.81797 13.7848L3.59886 13.1601ZM0.725828 9.56825L1.50675 8.94361L1.50652 8.94333L0.725828 9.56825ZM0 7.49999L-1 7.49999L0 7.49999ZM0.725828 5.43174L1.50652 6.05665L1.50699 6.05606L0.725828 5.43174ZM8.45421 4.56193L9.16131 3.85482L9.14884 3.84235L9.13593 3.83032L8.45421 4.56193ZM7.22324 5.7929L6.49163 6.47462L6.50366 6.48753L6.51613 6.5L7.22324 5.7929ZM8.93033 7.49999L9.63744 8.2071L10.3445 7.49999L9.63744 6.79288L8.93033 7.49999ZM7.22324 9.20709L7.90496 9.9387L7.91787 9.92667L7.93035 9.91419L7.22324 9.20709ZM8.45421 10.4381L7.7471 9.73095L7.73462 9.74342L7.72259 9.75633L8.45421 10.4381ZM10.1613 8.73096L10.8684 8.02385L10.1613 7.31674L9.45419 8.02385L10.1613 8.73096ZM11.8684 10.4381L12.6 9.75633L12.588 9.74342L12.5755 9.73094L11.8684 10.4381ZM13.0994 9.20709L12.3923 9.91419L12.4047 9.92667L12.4176 9.9387L13.0994 9.20709ZM11.3923 7.49999L10.6852 6.79288L9.97805 7.49999L10.6852 8.2071L11.3923 7.49999ZM13.0994 5.7929L13.8065 6.5L13.8189 6.48753L13.831 6.47462L13.0994 5.7929ZM11.8684 4.56193L11.1867 3.83032L11.1738 3.84235L11.1613 3.85482L11.8684 4.56193ZM10.1613 6.26903L9.45419 6.97613L10.1613 7.68324L10.8684 6.97613L10.1613 6.26903ZM6.31976 3.27419H14.5161V1.27419H6.31976V3.27419ZM14.5161 3.27419C14.7129 3.27419 14.9016 3.35236 15.0408 3.4915L16.455 2.07729C15.9408 1.56307 15.2433 1.27419 14.5161 1.27419V3.27419ZM15.0408 3.4915C15.1799 3.63064 15.2581 3.81935 15.2581 4.01612H17.2581C17.2581 3.28892 16.9692 2.5915 16.455 2.07729L15.0408 3.4915ZM15.2581 4.01612V10.9839H17.2581V4.01612H15.2581ZM15.2581 10.9839C15.2581 11.1806 15.1799 11.3693 15.0408 11.5085L16.455 12.9227C16.9692 12.4085 17.2581 11.7111 17.2581 10.9839L15.2581 10.9839ZM15.0408 11.5085C14.9016 11.6476 14.7129 11.7258 14.5161 11.7258L14.5161 13.7258C15.2433 13.7258 15.9408 13.4369 16.455 12.9227L15.0408 11.5085ZM14.5161 11.7258H6.31976V13.7258H14.5161V11.7258ZM6.31998 11.7258C6.20874 11.7258 6.09892 11.7007 5.99866 11.6525L5.13205 13.455C5.50257 13.6332 5.90841 13.7257 6.31953 13.7258L6.31998 11.7258ZM5.99866 11.6525C5.8984 11.6043 5.81027 11.5342 5.74078 11.4473L4.179 12.6967C4.43581 13.0177 4.76153 13.2769 5.13205 13.455L5.99866 11.6525ZM5.74068 11.4472L2.86649 7.85533L1.3049 9.10491L4.17909 12.6968L5.74068 11.4472ZM2.86617 7.85493C2.7855 7.75422 2.74154 7.62903 2.74154 7.49999L0.741541 7.49999C0.741541 8.0836 0.940354 8.64981 1.30522 9.1053L2.86617 7.85493ZM2.74154 7.49999C2.74154 7.37095 2.7855 7.24576 2.86617 7.14505L1.30522 5.89468C0.940354 6.35018 0.741541 6.91638 0.741541 7.49999L2.74154 7.49999ZM2.86649 7.14465L5.74068 3.55278L4.17909 2.30321L1.3049 5.89508L2.86649 7.14465ZM5.74078 3.55266C5.81017 3.46592 5.89814 3.39587 5.99822 3.34767L5.1304 1.54576C4.76056 1.72388 4.43542 1.98277 4.17899 2.30333L5.74078 3.55266ZM5.99822 3.34767C6.0983 3.29948 6.20792 3.27436 6.31899 3.27419L6.31588 1.27419C5.90537 1.27483 5.50025 1.36764 5.1304 1.54576L5.99822 3.34767ZM4.37743 2.46454C4.61033 2.17338 4.90579 1.9384 5.2419 1.77701L4.37619 -0.0259164C3.76945 0.265422 3.23608 0.689615 2.81564 1.2152L4.37743 2.46454ZM5.2419 1.77701C5.57801 1.61562 5.94614 1.53197 6.31898 1.53226L6.32053 -0.467742C5.64747 -0.468263 4.98293 -0.317255 4.37619 -0.0259164L5.2419 1.77701ZM6.31976 1.53226H14.5161V-0.467742H6.31976V1.53226ZM14.5161 1.53226C15.1749 1.53226 15.8067 1.79395 16.2725 2.25977L17.6867 0.845552C16.8458 0.0046642 15.7053 -0.467742 14.5161 -0.467742V1.53226ZM16.2725 2.25977C16.7383 2.72558 17 3.35736 17 4.01612H19C19 2.82693 18.5276 1.68644 17.6867 0.845552L16.2725 2.25977ZM17 4.01612V10.9839H19V4.01612H17ZM17 10.9839C17 11.6426 16.7383 12.2744 16.2725 12.7402L17.6867 14.1544C18.5276 13.3135 19 12.1731 19 10.9839L17 10.9839ZM16.2725 12.7402C15.8067 13.206 15.1749 13.4677 14.5161 13.4677V15.4677C15.7053 15.4677 16.8458 14.9953 17.6867 14.1544L16.2725 12.7402ZM14.5161 13.4677H6.31976V15.4677H14.5161V13.4677ZM6.31965 13.4677C5.94708 13.4678 5.57928 13.384 5.24348 13.2226L4.37716 15.0253C4.98335 15.3166 5.64731 15.4678 6.31987 15.4677L6.31965 13.4677ZM5.24348 13.2226C4.90768 13.0612 4.61248 12.8264 4.37975 12.5354L2.81797 13.7848C3.23809 14.31 3.77098 14.7339 4.37716 15.0253L5.24348 13.2226ZM4.37977 12.5355L1.50675 8.94361L-0.0550901 10.1929L2.81794 13.7847L4.37977 12.5355ZM1.50652 8.94333C1.17864 8.53372 1 8.02467 1 7.49999L-1 7.49999C-1 8.47901 -0.666666 9.42885 -0.054867 10.1932L1.50652 8.94333ZM1 7.49999C1 6.97531 1.17864 6.46626 1.50652 6.05665L-0.054867 4.80682C-0.666666 5.57114 -1 6.52098 -1 7.49999H1ZM1.50699 6.05606L4.3777 2.46419L2.81537 1.21554L-0.0553364 4.80741L1.50699 6.05606ZM9.13593 3.83032C8.78125 3.49983 8.31215 3.31991 7.82744 3.32846L7.86272 5.32815C7.8293 5.32874 7.79694 5.31633 7.77248 5.29354L9.13593 3.83032ZM7.82744 3.32846C7.34274 3.33702 6.88027 3.53337 6.53747 3.87617L7.95169 5.29038C7.92805 5.31402 7.89615 5.32756 7.86272 5.32815L7.82744 3.32846ZM6.53747 3.87617C6.19468 4.21896 5.99832 4.68143 5.98977 5.16613L7.98946 5.20142C7.98887 5.23484 7.97533 5.26674 7.95169 5.29038L6.53747 3.87617ZM5.98977 5.16613C5.98122 5.65084 6.16114 6.11995 6.49163 6.47462L7.95485 5.11117C7.97764 5.13564 7.99005 5.16799 7.98946 5.20142L5.98977 5.16613ZM6.51613 6.5L8.22323 8.2071L9.63744 6.79288L7.93035 5.08579L6.51613 6.5ZM8.22323 6.79288L6.51613 8.49998L7.93035 9.91419L9.63744 8.2071L8.22323 6.79288ZM6.54152 8.47548C6.3577 8.64676 6.21026 8.85332 6.108 9.08282L7.93486 9.89681C7.92781 9.91264 7.91764 9.92688 7.90496 9.9387L6.54152 8.47548ZM6.108 9.08282C6.00574 9.31233 5.95075 9.56008 5.94632 9.81129L7.94601 9.84657C7.9457 9.86389 7.94191 9.88098 7.93486 9.89681L6.108 9.08282ZM5.94632 9.81129C5.94189 10.0625 5.9881 10.312 6.0822 10.545L7.93664 9.79597C7.94313 9.81204 7.94632 9.82925 7.94601 9.84657L5.94632 9.81129ZM6.0822 10.545C6.1763 10.778 6.31636 10.9896 6.49402 11.1673L7.90824 9.75305C7.92049 9.76531 7.93015 9.7799 7.93664 9.79597L6.0822 10.545ZM6.49402 11.1673C6.67169 11.3449 6.88331 11.485 7.11628 11.5791L7.86532 9.72465C7.88139 9.73114 7.89599 9.7408 7.90824 9.75305L6.49402 11.1673ZM7.11628 11.5791C7.34925 11.6732 7.59879 11.7194 7.85 11.715L7.81472 9.71528C7.83205 9.71498 7.84926 9.71816 7.86532 9.72465L7.11628 11.5791ZM7.85 11.715C8.10122 11.7105 8.34897 11.6556 8.57847 11.5533L7.76448 9.72643C7.78031 9.71938 7.79739 9.71559 7.81472 9.71528L7.85 11.715ZM8.57847 11.5533C8.80798 11.451 9.01453 11.3036 9.18582 11.1198L7.72259 9.75633C7.73441 9.74365 7.74865 9.73348 7.76448 9.72643L8.57847 11.5533ZM9.16131 11.1452L10.8684 9.43806L9.45419 8.02385L7.7471 9.73095L9.16131 11.1452ZM9.45419 9.43807L11.1613 11.1452L12.5755 9.73094L10.8684 8.02385L9.45419 9.43807ZM11.1368 11.1198C11.3081 11.3036 11.5146 11.451 11.7441 11.5533L12.5581 9.72643C12.5739 9.73349 12.5882 9.74365 12.6 9.75633L11.1368 11.1198ZM11.7441 11.5533C11.9736 11.6556 12.2214 11.7105 12.4726 11.715L12.5079 9.71528C12.5252 9.71559 12.5423 9.71938 12.5581 9.72643L11.7441 11.5533ZM12.4726 11.715C12.7238 11.7194 12.9733 11.6732 13.2063 11.5791L12.4573 9.72465C12.4733 9.71816 12.4906 9.71498 12.5079 9.71528L12.4726 11.715ZM13.2063 11.5791C13.4393 11.485 13.6509 11.3449 13.8286 11.1673L12.4144 9.75305C12.4266 9.7408 12.4412 9.73114 12.4573 9.72465L13.2063 11.5791ZM13.8286 11.1673C14.0062 10.9896 14.1463 10.778 14.2404 10.545L12.386 9.79597C12.3925 9.7799 12.4021 9.7653 12.4144 9.75305L13.8286 11.1673ZM14.2404 10.545C14.3345 10.312 14.3807 10.0625 14.3763 9.81129L12.3766 9.84657C12.3763 9.82924 12.3795 9.81203 12.386 9.79597L14.2404 10.545ZM14.3763 9.81129C14.3718 9.56007 14.3169 9.31232 14.2146 9.08282L12.3877 9.89681C12.3807 9.88098 12.3769 9.8639 12.3766 9.84657L14.3763 9.81129ZM14.2146 9.08282C14.1123 8.85331 13.9649 8.64676 13.7811 8.47548L12.4176 9.9387C12.405 9.92689 12.3948 9.91264 12.3877 9.89681L14.2146 9.08282ZM13.8065 8.49998L12.0994 6.79288L10.6852 8.2071L12.3923 9.91419L13.8065 8.49998ZM12.0994 8.2071L13.8065 6.5L12.3923 5.08579L10.6852 6.79288L12.0994 8.2071ZM13.831 6.47462C14.1615 6.11995 14.3414 5.65084 14.3328 5.16613L12.3331 5.20142C12.3325 5.16799 12.345 5.13563 12.3677 5.11117L13.831 6.47462ZM14.3328 5.16613C14.3243 4.68142 14.1279 4.21896 13.7851 3.87617L12.3709 5.29038C12.3473 5.26674 12.3337 5.23485 12.3331 5.20142L14.3328 5.16613ZM13.7851 3.87617C13.4423 3.53337 12.9799 3.33702 12.4952 3.32846L12.4599 5.32815C12.4264 5.32756 12.3946 5.31402 12.3709 5.29038L13.7851 3.87617ZM12.4952 3.32846C12.0104 3.31991 11.5413 3.49983 11.1867 3.83032L12.5501 5.29354C12.5257 5.31633 12.4933 5.32874 12.4599 5.32815L12.4952 3.32846ZM11.1613 3.85482L9.45419 5.56192L10.8684 6.97613L12.5755 5.26904L11.1613 3.85482ZM10.8684 5.56192L9.16131 3.85482L7.7471 5.26904L9.45419 6.97613L10.8684 5.56192Z" fill="white" mask="url(#path-1-inside-1_49_200)"/>
</svg>
